<svg width="32" height="30" viewBox="0 0 32 30" fill="none" xmlns="http://www.w3.org/2000/svg">
<path d="M28.8104 0.673802C28.4168 0.692907 28.046 0.812314 27.7165 0.94605H27.7119C27.3778 1.08456 25.7895 1.7819 23.3774 2.83746C20.9653 3.8978 17.8346 5.27337 14.7268 6.63939C8.52037 9.36666 2.41917 12.0509 2.41917 12.0509L2.49241 12.0223C2.49241 12.0223 2.07132 12.1656 1.63192 12.4808C1.40765 12.6336 1.16049 12.8438 0.945368 13.1734C0.730247 13.5029 0.556319 14.0092 0.620398 14.5298C0.72567 15.4134 1.27492 15.9436 1.66854 16.235C2.06674 16.5311 2.44664 16.6696 2.44664 16.6696H2.45579L8.17709 18.6804C8.43341 19.5402 9.92095 24.6412 10.278 25.8162C10.4885 26.5183 10.6945 26.9578 10.9508 27.2921C11.0744 27.464 11.2208 27.6073 11.3948 27.722C11.4634 27.7649 11.5366 27.7984 11.6099 27.827C11.6328 27.8414 11.6556 27.8461 11.6831 27.8509L11.6236 27.8366C11.6419 27.8414 11.6556 27.8557 11.6694 27.8605C11.7151 27.8748 11.7472 27.8796 11.8067 27.8891C12.7129 28.1757 13.4407 27.5882 13.4407 27.5882L13.4819 27.5548L16.8597 24.3451L22.5215 28.8778L22.6497 28.9351C23.8306 29.4749 25.0252 29.174 25.6568 28.6438C26.293 28.1088 26.5402 27.4258 26.5402 27.4258L26.5814 27.316L30.957 3.92646C31.0806 3.34853 31.1126 2.80881 30.9753 2.28341C30.838 1.75802 30.4856 1.26606 30.0599 1.00337C29.6297 0.735893 29.204 0.654697 28.8104 0.673802ZM28.6914 3.18136C28.6868 3.25778 28.7005 3.24822 28.6685 3.39629V3.41062L24.334 26.5565C24.3157 26.59 24.2837 26.6616 24.1967 26.7333C24.1052 26.8097 24.032 26.8574 23.6521 26.6998L16.727 21.1593L12.5436 25.138L13.4224 19.2822C13.4224 19.2822 24.27 8.73141 24.7368 8.27766C25.2037 7.82391 25.0481 7.72839 25.0481 7.72839C25.0801 7.17434 24.3432 7.566 24.3432 7.566L10.0766 16.789L10.072 16.7651L3.23389 14.3627V14.3579C3.22931 14.3579 3.22016 14.3531 3.21558 14.3531C3.22016 14.3531 3.2522 14.3388 3.2522 14.3388L3.28881 14.3197L3.32543 14.3053C3.32543 14.3053 9.4312 11.6211 15.6377 8.8938C18.7455 7.52778 21.8762 6.15221 24.2837 5.09187C26.6912 4.03631 28.4717 3.26255 28.5724 3.21957C28.6685 3.18136 28.6227 3.18136 28.6914 3.18136Z" fill="#554C46"/>
</svg>
