<svg width="31" height="22" viewBox="0 0 31 22" fill="none" xmlns="http://www.w3.org/2000/svg">
<path fill-rule="evenodd" clip-rule="evenodd" d="M30.7577 17.2472C30.0479 15.7554 29.1127 14.3928 27.988 13.2114C27.6052 12.7471 27.1565 12.2889 26.8061 11.9313L26.7572 11.8813C26.5764 11.6966 26.4271 11.5434 26.305 11.4115C27.8429 9.17988 29.1591 6.79037 30.2331 4.27969L30.2764 4.17839L30.3068 4.07208C30.4479 3.57791 30.6105 2.63822 30.0354 1.789C29.441 0.911246 28.4892 0.752943 27.8519 0.752943H24.9195C24.3083 0.723707 23.703 0.896158 23.1901 1.24677C22.6734 1.60001 22.2781 2.11528 22.0606 2.71761C21.4291 4.28727 20.639 5.78029 19.7045 7.17169V3.58584C19.7045 3.12232 19.6628 2.34693 19.1871 1.69248C18.6176 0.908876 17.7941 0.752943 17.2224 0.752943H12.5696C11.9702 0.738482 11.3872 0.962148 10.9392 1.37968C10.4803 1.80727 10.1992 2.40456 10.1553 3.04487L10.1511 3.10553V3.16634C10.1511 3.82744 10.4021 4.31509 10.6027 4.62178C10.6925 4.75909 10.7885 4.88408 10.8492 4.96302L10.8632 4.98124C10.9279 5.06542 10.9711 5.12161 11.0144 5.18312C11.1284 5.34492 11.2923 5.59439 11.3387 6.23994V8.24572C10.5366 6.86973 9.69042 5.03865 9.05375 3.08302L9.04397 3.053L9.03314 3.02339C8.8744 2.58951 8.61978 1.95821 8.10982 1.4751C7.51408 0.910728 6.80945 0.752943 6.16862 0.752943H3.19344C2.54514 0.752943 1.76358 0.911219 1.18041 1.55317C0.606943 2.18446 0.541992 2.94089 0.541992 3.34308V3.52437L0.578581 3.70159C1.40265 7.69301 3.10065 11.4308 5.53918 14.6228C6.64474 16.442 8.1428 17.967 9.91418 19.0754C11.7138 20.2015 13.7441 20.8652 15.8377 21.012L15.8923 21.0158H15.9471C16.8942 21.0158 17.8817 20.9306 18.6242 20.4142C19.6258 19.7177 19.7045 18.6479 19.7045 18.1148V16.5653C19.9616 16.7821 20.2805 17.074 20.6709 17.4663C21.1429 17.9593 21.5188 18.3865 21.8411 18.7593L22.0131 18.9589L22.0141 18.96C22.2644 19.2509 22.5108 19.5373 22.7351 19.7726C23.0171 20.0683 23.3647 20.3943 23.8017 20.6351C24.2749 20.8959 24.7716 21.0138 25.2992 21.0138H28.2764C28.9035 21.0138 29.8031 20.859 30.4356 20.0938C31.1249 19.2599 31.0723 18.2378 30.8555 17.5032L30.8165 17.3711L30.7577 17.2472ZM23.2944 17.391C22.9593 17.0033 22.5551 16.5438 22.0444 16.0109L22.0402 16.0066C20.2706 14.2261 19.4437 13.9159 18.8591 13.9159C18.5481 13.9159 18.204 13.9524 17.9807 14.2426C17.8753 14.3795 17.8199 14.5449 17.7889 14.7171C17.7578 14.8891 17.7471 15.0911 17.7471 15.3211V18.1148C17.7471 18.4618 17.6924 18.6075 17.5387 18.7145C17.3338 18.8569 16.896 18.9724 15.9581 18.9732C14.1776 18.8466 12.4513 18.2813 10.9208 17.3236C9.38704 16.364 8.09375 15.0378 7.14739 13.4544L7.13709 13.4372L7.1249 13.4213C4.85266 10.47 3.26934 7.00792 2.49978 3.3086C2.50396 3.13027 2.54098 3.02448 2.60097 2.95843C2.66278 2.89038 2.81256 2.79555 3.19344 2.79555H6.16862C6.49958 2.79555 6.67086 2.87068 6.79414 2.98746C6.9339 3.11986 7.05511 3.3447 7.20238 3.74616C7.93263 5.98755 8.92015 8.08368 9.85529 9.62489C10.3227 10.3952 10.7827 11.0365 11.1971 11.4895C11.404 11.7158 11.6069 11.9032 11.8005 12.0365C11.988 12.1655 12.2004 12.2672 12.4189 12.2672C12.5342 12.2672 12.6691 12.2548 12.7989 12.1948C12.9386 12.1304 13.047 12.0228 13.1236 11.8786C13.259 11.6237 13.2961 11.246 13.2961 10.7513V6.17083L13.2955 6.16008C13.2278 5.04572 12.9054 4.41887 12.5915 3.97324C12.5227 3.87558 12.4548 3.78736 12.3955 3.71017L12.3792 3.68902C12.314 3.60418 12.2621 3.53563 12.2195 3.47044C12.1414 3.35101 12.1111 3.26774 12.1087 3.1785C12.1188 3.07258 12.1667 2.97431 12.243 2.9032C12.3222 2.82939 12.4258 2.79096 12.5319 2.79555H17.2224C17.4914 2.79555 17.5819 2.86402 17.6275 2.92674C17.6918 3.01528 17.7471 3.19943 17.7471 3.58584V9.75263C17.7471 10.4851 18.0707 10.9811 18.5406 10.9811C19.0814 10.9811 19.4712 10.6387 20.1529 9.92734L20.1642 9.91549L20.1744 9.90242C21.7022 7.95826 22.9509 5.79225 23.8803 3.47246L23.8862 3.45507C23.9561 3.25009 24.0883 3.0746 24.2628 2.95537C24.4371 2.83615 24.6441 2.77973 24.8521 2.79475L24.8634 2.79555H27.8519C28.2594 2.79555 28.3935 2.9038 28.4369 2.96781C28.4829 3.03591 28.515 3.18188 28.4367 3.46813C27.3652 5.96884 26.0402 8.34254 24.4849 10.5494L24.4751 10.5649C24.3241 10.8059 24.1585 11.0726 24.1345 11.3787C24.1088 11.7074 24.2452 12.0063 24.4836 12.3266C24.6574 12.5947 25.0159 12.9609 25.3795 13.3324L25.4139 13.3674C25.7952 13.7568 26.2082 14.1787 26.5398 14.5872L26.5486 14.598L26.5583 14.608C27.5468 15.637 28.3687 16.8265 28.9921 18.1299C29.0917 18.4848 29.0307 18.6662 28.9534 18.7597C28.8629 18.8692 28.6601 18.9712 28.2764 18.9712H25.2992C25.0666 18.9712 24.8872 18.9234 24.7157 18.8289C24.5371 18.7304 24.3533 18.5738 24.1229 18.3321C23.9373 18.1374 23.7345 17.9018 23.4871 17.6146C23.4258 17.5434 23.3617 17.4688 23.2944 17.391Z" fill="#554C46"/>
</svg>
