<svg width="34" height="27" viewBox="0 0 34 27" fill="none" xmlns="http://www.w3.org/2000/svg">
<path d="M20.2747 13.6696L14.9446 16.848V10.4912L20.2747 13.6696Z" fill="#554C46" stroke="#554C46" stroke-width="3" stroke-linecap="round" stroke-linejoin="round"/>
<path d="M2 14.7928V12.5439C2 7.94267 2 5.64205 3.37897 4.16176C4.75795 2.68147 6.92895 2.6174 11.2709 2.48924C13.3284 2.42852 15.4301 2.38501 17.229 2.38501C19.0278 2.38501 21.1296 2.42852 23.187 2.48924C27.529 2.6174 29.7 2.68147 31.079 4.16176C32.458 5.64205 32.458 7.94267 32.458 12.5439V14.7928C32.458 19.394 32.458 21.6947 31.079 23.1749C29.7 24.6552 27.5291 24.7193 23.1872 24.8475C21.1296 24.9082 19.0278 24.9517 17.229 24.9517C15.4301 24.9517 13.3283 24.9082 11.2708 24.8475C6.92888 24.7193 4.75792 24.6552 3.37895 23.1749C2 21.6947 2 19.394 2 14.7928Z" stroke="#554C46" stroke-width="3"/>
</svg>
